<svg xmlns="http://www.w3.org/2000/svg" viewBox="0 0 800 1000" role="img" aria-label="Portret — miejsce na zdjęcie">
  <defs>
    <linearGradient id="sky" x1="0" y1="0" x2="0" y2="1">
      <stop offset="0" stop-color="#1b352c"/>
      <stop offset="1" stop-color="#12271f"/>
    </linearGradient>
    <linearGradient id="glass" x1="0" y1="0" x2="1" y2="1">
      <stop offset="0" stop-color="#e8b04b" stop-opacity="0.9"/>
      <stop offset="1" stop-color="#e8b04b" stop-opacity="0.35"/>
    </linearGradient>
  </defs>
  <rect width="800" height="1000" fill="url(#sky)"/>
  <circle cx="640" cy="180" r="150" fill="url(#glass)" opacity="0.5"/>
  <circle cx="150" cy="820" r="110" fill="#166534" opacity="0.35"/>
  <g opacity="0.16" fill="#f6f3ec">
    <circle cx="80" cy="120" r="4"/><circle cx="120" cy="120" r="4"/><circle cx="160" cy="120" r="4"/>
    <circle cx="80" cy="160" r="4"/><circle cx="120" cy="160" r="4"/><circle cx="160" cy="160" r="4"/>
  </g>
  <g>
    <circle cx="400" cy="360" r="130" fill="#f0e6d2"/>
    <path d="M400 250c-72 0-118 52-118 122 0 20 4 38 12 54 22-38 60-60 106-60s84 22 106 60c8-16 12-34 12-54 0-70-46-122-118-122z" fill="#2b3a33"/>
    <path d="M180 1000c0-160 98-268 220-268s220 108 220 268z" fill="url(#glass)"/>
    <path d="M400 732c-56 0-104 26-140 68 34 46 84 76 140 76s106-30 140-76c-36-42-84-68-140-68z" fill="#f0e6d2"/>
  </g>
  <rect x="60" y="920" width="240" height="10" rx="5" fill="#f6f3ec" opacity="0.4"/>
  <rect x="60" y="948" width="160" height="10" rx="5" fill="#f6f3ec" opacity="0.24"/>
</svg>
